<mxfile host="app.diagrams.net" modified="2022-07-01T20:48:39.298Z" agent="5.0 (Windows NT 10.0; Win64; x64) AppleWebKit/537.36 (KHTML, like Gecko) Chrome/102.0.0.0 Safari/537.36" etag="Tc4W9QprpMTN_anO3dxT" version="20.0.4" type="github">
  <diagram id="M1FiFrrxieKfgSfbgAr-" name="Страница 1">
    <mxGraphModel dx="2147" dy="484" grid="1" gridSize="10" guides="1" tooltips="1" connect="1" arrows="1" fold="1" page="1" pageScale="1" pageWidth="827" pageHeight="1169" math="0" shadow="0">
      <root>
        <mxCell id="0" />
        <mxCell id="1" parent="0" />
        <mxCell id="SoN2IKcIPE8dQmSVRrFE-1" value="начало" style="rounded=1;whiteSpace=wrap;html=1;" vertex="1" parent="1">
          <mxGeometry x="110" y="30" width="100" height="40" as="geometry" />
        </mxCell>
        <mxCell id="SoN2IKcIPE8dQmSVRrFE-3" value="" style="endArrow=classic;html=1;rounded=0;exitX=0.5;exitY=1;exitDx=0;exitDy=0;entryX=0.5;entryY=0;entryDx=0;entryDy=0;" edge="1" parent="1" source="SoN2IKcIPE8dQmSVRrFE-1" target="SoN2IKcIPE8dQmSVRrFE-4">
          <mxGeometry width="50" height="50" relative="1" as="geometry">
            <mxPoint x="340" y="250" as="sourcePoint" />
            <mxPoint x="160" y="100" as="targetPoint" />
          </mxGeometry>
        </mxCell>
        <mxCell id="SoN2IKcIPE8dQmSVRrFE-6" value="" style="edgeStyle=orthogonalEdgeStyle;rounded=0;orthogonalLoop=1;jettySize=auto;html=1;" edge="1" parent="1" source="SoN2IKcIPE8dQmSVRrFE-4" target="SoN2IKcIPE8dQmSVRrFE-5">
          <mxGeometry relative="1" as="geometry" />
        </mxCell>
        <mxCell id="SoN2IKcIPE8dQmSVRrFE-4" value="а, b, c, d" style="shape=parallelogram;perimeter=parallelogramPerimeter;whiteSpace=wrap;html=1;fixedSize=1;" vertex="1" parent="1">
          <mxGeometry x="90" y="110" width="140" height="40" as="geometry" />
        </mxCell>
        <mxCell id="SoN2IKcIPE8dQmSVRrFE-8" value="" style="edgeStyle=orthogonalEdgeStyle;rounded=0;orthogonalLoop=1;jettySize=auto;html=1;fontFamily=Times New Roman;fontSize=14;" edge="1" parent="1" source="SoN2IKcIPE8dQmSVRrFE-5" target="SoN2IKcIPE8dQmSVRrFE-7">
          <mxGeometry relative="1" as="geometry" />
        </mxCell>
        <mxCell id="SoN2IKcIPE8dQmSVRrFE-5" value="X[4]= {a, b, c, d}&lt;br&gt;i = 0, sum = 0" style="whiteSpace=wrap;html=1;" vertex="1" parent="1">
          <mxGeometry x="90" y="180" width="140" height="60" as="geometry" />
        </mxCell>
        <mxCell id="SoN2IKcIPE8dQmSVRrFE-10" value="" style="edgeStyle=orthogonalEdgeStyle;rounded=0;orthogonalLoop=1;jettySize=auto;html=1;fontFamily=Times New Roman;fontSize=14;" edge="1" parent="1" source="SoN2IKcIPE8dQmSVRrFE-7">
          <mxGeometry relative="1" as="geometry">
            <mxPoint x="260" y="320" as="targetPoint" />
          </mxGeometry>
        </mxCell>
        <mxCell id="SoN2IKcIPE8dQmSVRrFE-15" value="" style="edgeStyle=orthogonalEdgeStyle;rounded=0;orthogonalLoop=1;jettySize=auto;html=1;fontFamily=Times New Roman;fontSize=14;" edge="1" parent="1" source="SoN2IKcIPE8dQmSVRrFE-7" target="SoN2IKcIPE8dQmSVRrFE-14">
          <mxGeometry relative="1" as="geometry" />
        </mxCell>
        <mxCell id="SoN2IKcIPE8dQmSVRrFE-7" value="i&amp;lt;4" style="rhombus;whiteSpace=wrap;html=1;" vertex="1" parent="1">
          <mxGeometry x="120" y="280" width="80" height="80" as="geometry" />
        </mxCell>
        <mxCell id="SoN2IKcIPE8dQmSVRrFE-13" value="" style="edgeStyle=orthogonalEdgeStyle;rounded=0;orthogonalLoop=1;jettySize=auto;html=1;fontFamily=Times New Roman;fontSize=14;" edge="1" parent="1" source="SoN2IKcIPE8dQmSVRrFE-11" target="SoN2IKcIPE8dQmSVRrFE-12">
          <mxGeometry relative="1" as="geometry" />
        </mxCell>
        <mxCell id="SoN2IKcIPE8dQmSVRrFE-11" value="вывод sum/i&amp;nbsp;" style="shape=document;whiteSpace=wrap;html=1;boundedLbl=1;fontFamily=Times New Roman;fontSize=14;" vertex="1" parent="1">
          <mxGeometry x="260" y="280" width="120" height="80" as="geometry" />
        </mxCell>
        <mxCell id="SoN2IKcIPE8dQmSVRrFE-12" value="конец" style="rounded=1;whiteSpace=wrap;html=1;fontSize=14;fontFamily=Times New Roman;" vertex="1" parent="1">
          <mxGeometry x="460" y="290" width="120" height="60" as="geometry" />
        </mxCell>
        <mxCell id="SoN2IKcIPE8dQmSVRrFE-14" value="sum = sum + x[i]" style="whiteSpace=wrap;html=1;" vertex="1" parent="1">
          <mxGeometry x="100" y="400" width="120" height="60" as="geometry" />
        </mxCell>
        <mxCell id="SoN2IKcIPE8dQmSVRrFE-16" value="нет" style="text;html=1;align=center;verticalAlign=middle;resizable=0;points=[];autosize=1;strokeColor=none;fillColor=none;fontSize=14;fontFamily=Times New Roman;" vertex="1" parent="1">
          <mxGeometry x="210" y="295" width="40" height="30" as="geometry" />
        </mxCell>
        <mxCell id="SoN2IKcIPE8dQmSVRrFE-17" value="да" style="text;html=1;align=center;verticalAlign=middle;resizable=0;points=[];autosize=1;strokeColor=none;fillColor=none;fontSize=14;fontFamily=Times New Roman;" vertex="1" parent="1">
          <mxGeometry x="150" y="365" width="40" height="30" as="geometry" />
        </mxCell>
        <mxCell id="SoN2IKcIPE8dQmSVRrFE-18" value="" style="endArrow=classic;html=1;rounded=0;fontFamily=Times New Roman;fontSize=14;exitX=0;exitY=0.5;exitDx=0;exitDy=0;" edge="1" parent="1" source="SoN2IKcIPE8dQmSVRrFE-14">
          <mxGeometry width="50" height="50" relative="1" as="geometry">
            <mxPoint x="420" y="450" as="sourcePoint" />
            <mxPoint x="40" y="370" as="targetPoint" />
            <Array as="points">
              <mxPoint x="40" y="430" />
            </Array>
          </mxGeometry>
        </mxCell>
        <mxCell id="SoN2IKcIPE8dQmSVRrFE-19" value="i = i +1" style="rounded=0;whiteSpace=wrap;html=1;fontFamily=Times New Roman;fontSize=14;" vertex="1" parent="1">
          <mxGeometry x="-10" y="310" width="100" height="60" as="geometry" />
        </mxCell>
        <mxCell id="SoN2IKcIPE8dQmSVRrFE-20" value="" style="endArrow=classic;html=1;rounded=0;fontFamily=Times New Roman;fontSize=14;exitX=0.5;exitY=0;exitDx=0;exitDy=0;" edge="1" parent="1" source="SoN2IKcIPE8dQmSVRrFE-19">
          <mxGeometry width="50" height="50" relative="1" as="geometry">
            <mxPoint x="50" y="280" as="sourcePoint" />
            <mxPoint x="160" y="260" as="targetPoint" />
            <Array as="points">
              <mxPoint x="40" y="260" />
            </Array>
          </mxGeometry>
        </mxCell>
      </root>
    </mxGraphModel>
  </diagram>
</mxfile>
